<?xml version="1.0" encoding="iso-8859-1"?>
<!-- Generator: Adobe Illustrator 19.0.0, SVG Export Plug-In . SVG Version: 6.00 Build 0)  -->
<svg version="1.1" id="Capa_1" xmlns="http://www.w3.org/2000/svg" xmlns:xlink="http://www.w3.org/1999/xlink" x="0px" y="0px"
	 viewBox="0 0 360 360" style="enable-background:new 0 0 360 360;" xml:space="preserve">
<g id="XMLID_1007_">
	<path id="XMLID_1008_" d="M345.554,124.239h-51.107V77.834L211.423,0H14.446v360h280v-53.034h51.107V124.239z M315.554,276.966
		h-210V154.239h210V276.966z"/>
	<path id="XMLID_1011_" d="M142.842,228.114h22.816l6.072,16.284h13.064l-24.84-65.32H148.73l-24.932,65.32h13.064L142.842,228.114z
		 M154.342,193.522l9.016,25.668h-18.4L154.342,193.522z"/>
	<path id="XMLID_1014_" d="M204.666,222.502h15.456c3.004,0,5.765-0.612,8.28-1.84c2.514-1.227,4.66-2.852,6.44-4.876
		c1.778-2.024,3.158-4.338,4.14-6.946c0.98-2.606,1.472-5.29,1.472-8.05c0-2.636-0.522-5.258-1.564-7.866
		c-1.043-2.606-2.484-4.936-4.324-6.992c-1.84-2.054-4.033-3.71-6.578-4.968c-2.546-1.256-5.322-1.886-8.326-1.886H191.97v65.32
		h12.696V222.502z M204.666,190.21h14.168c1.104,0,2.192,0.23,3.266,0.69c1.072,0.46,2.008,1.15,2.806,2.07
		c0.796,0.92,1.44,2.04,1.932,3.358c0.49,1.319,0.736,2.806,0.736,4.462c0,3.252-0.782,5.828-2.346,7.728
		c-1.564,1.902-3.512,2.852-5.842,2.852h-14.72V190.21z"/>
	<path id="XMLID_1017_" d="M261.981,222.502h15.456c3.004,0,5.765-0.612,8.28-1.84c2.514-1.227,4.66-2.852,6.44-4.876
		c1.778-2.024,3.158-4.338,4.14-6.946c0.98-2.606,1.472-5.29,1.472-8.05c0-2.636-0.522-5.258-1.564-7.866
		c-1.043-2.606-2.484-4.936-4.324-6.992c-1.84-2.054-4.033-3.71-6.578-4.968c-2.546-1.256-5.322-1.886-8.326-1.886h-27.692v65.32
		h12.696V222.502z M261.981,190.21h14.168c1.104,0,2.192,0.23,3.266,0.69c1.072,0.46,2.008,1.15,2.806,2.07
		c0.796,0.92,1.44,2.04,1.932,3.358c0.49,1.319,0.736,2.806,0.736,4.462c0,3.252-0.782,5.828-2.346,7.728
		c-1.564,1.902-3.512,2.852-5.842,2.852h-14.72V190.21z"/>
</g>
<g>
</g>
<g>
</g>
<g>
</g>
<g>
</g>
<g>
</g>
<g>
</g>
<g>
</g>
<g>
</g>
<g>
</g>
<g>
</g>
<g>
</g>
<g>
</g>
<g>
</g>
<g>
</g>
<g>
</g>
</svg>
